<svg id="visual" viewBox="0 0 960 540" width="960" height="540" xmlns="http://www.w3.org/2000/svg" xmlns:xlink="http://www.w3.org/1999/xlink" version="1.1"><rect x="0" y="0" width="960" height="540" fill="#FFFFFF"></rect><defs><linearGradient id="grad1_0" x1="43.8%" y1="0%" x2="100%" y2="100%"><stop offset="14.444444444444446%" stop-color="#abc4ff" stop-opacity="1"></stop><stop offset="85.55555555555554%" stop-color="#abc4ff" stop-opacity="1"></stop></linearGradient></defs><defs><linearGradient id="grad1_1" x1="43.8%" y1="0%" x2="100%" y2="100%"><stop offset="14.444444444444446%" stop-color="#abc4ff" stop-opacity="1"></stop><stop offset="85.55555555555554%" stop-color="#c9d7ff" stop-opacity="1"></stop></linearGradient></defs><defs><linearGradient id="grad1_2" x1="43.8%" y1="0%" x2="100%" y2="100%"><stop offset="14.444444444444446%" stop-color="#e4ebff" stop-opacity="1"></stop><stop offset="85.55555555555554%" stop-color="#c9d7ff" stop-opacity="1"></stop></linearGradient></defs><defs><linearGradient id="grad1_3" x1="43.8%" y1="0%" x2="100%" y2="100%"><stop offset="14.444444444444446%" stop-color="#e4ebff" stop-opacity="1"></stop><stop offset="85.55555555555554%" stop-color="#ffffff" stop-opacity="1"></stop></linearGradient></defs><defs><linearGradient id="grad2_0" x1="0%" y1="0%" x2="56.3%" y2="100%"><stop offset="14.444444444444446%" stop-color="#abc4ff" stop-opacity="1"></stop><stop offset="85.55555555555554%" stop-color="#abc4ff" stop-opacity="1"></stop></linearGradient></defs><defs><linearGradient id="grad2_1" x1="0%" y1="0%" x2="56.3%" y2="100%"><stop offset="14.444444444444446%" stop-color="#c9d7ff" stop-opacity="1"></stop><stop offset="85.55555555555554%" stop-color="#abc4ff" stop-opacity="1"></stop></linearGradient></defs><defs><linearGradient id="grad2_2" x1="0%" y1="0%" x2="56.3%" y2="100%"><stop offset="14.444444444444446%" stop-color="#c9d7ff" stop-opacity="1"></stop><stop offset="85.55555555555554%" stop-color="#e4ebff" stop-opacity="1"></stop></linearGradient></defs><defs><linearGradient id="grad2_3" x1="0%" y1="0%" x2="56.3%" y2="100%"><stop offset="14.444444444444446%" stop-color="#ffffff" stop-opacity="1"></stop><stop offset="85.55555555555554%" stop-color="#e4ebff" stop-opacity="1"></stop></linearGradient></defs><g transform="translate(960, 0)"><path d="M0 162C-17.7 153.2 -35.4 144.4 -57.4 138.6C-79.4 132.8 -105.6 130 -114.6 114.6C-123.5 99.1 -115.1 71 -120.1 49.7C-125.1 28.5 -143.6 14.3 -162 0L0 0Z" fill="#f2f5ff"></path><path d="M0 121.5C-13.3 114.9 -26.6 108.3 -43.1 103.9C-59.5 99.6 -79.2 97.5 -85.9 85.9C-92.6 74.3 -86.3 53.2 -90.1 37.3C-93.8 21.4 -107.7 10.7 -121.5 0L0 0Z" fill="#d7e1ff"></path><path d="M0 81C-8.9 76.6 -17.7 72.2 -28.7 69.3C-39.7 66.4 -52.8 65 -57.3 57.3C-61.7 49.5 -57.5 35.5 -60.1 24.9C-62.6 14.3 -71.8 7.1 -81 0L0 0Z" fill="#baceff"></path><path d="M0 40.5C-4.4 38.3 -8.9 36.1 -14.4 34.6C-19.8 33.2 -26.4 32.5 -28.6 28.6C-30.9 24.8 -28.8 17.7 -30 12.4C-31.3 7.1 -35.9 3.6 -40.5 0L0 0Z" fill="#abc4ff"></path></g><g transform="translate(0, 540)"><path d="M0 -162C20.9 -159.8 41.8 -157.7 62 -149.7C82.2 -141.6 101.6 -127.7 109.6 -109.6C117.6 -91.5 114.2 -69.1 121 -50.1C127.9 -31.2 144.9 -15.6 162 0L0 0Z" fill="#f2f5ff"></path><path d="M0 -121.5C15.7 -119.9 31.4 -118.3 46.5 -112.3C61.6 -106.2 76.2 -95.8 82.2 -82.2C88.2 -68.6 85.6 -51.8 90.8 -37.6C95.9 -23.4 108.7 -11.7 121.5 0L0 0Z" fill="#d7e1ff"></path><path d="M0 -81C10.5 -79.9 20.9 -78.8 31 -74.8C41.1 -70.8 50.8 -63.9 54.8 -54.8C58.8 -45.7 57.1 -34.6 60.5 -25.1C63.9 -15.6 72.5 -7.8 81 0L0 0Z" fill="#baceff"></path><path d="M0 -40.5C5.2 -40 10.5 -39.4 15.5 -37.4C20.5 -35.4 25.4 -31.9 27.4 -27.4C29.4 -22.9 28.5 -17.3 30.3 -12.5C32 -7.8 36.2 -3.9 40.5 0L0 0Z" fill="#abc4ff"></path></g></svg>