<?xml version="1.0" standalone="no"?>
<!DOCTYPE svg PUBLIC "-//W3C//DTD SVG 20010904//EN"
 "http://www.w3.org/TR/2001/REC-SVG-20010904/DTD/svg10.dtd">
<svg version="1.0" xmlns="http://www.w3.org/2000/svg"
 width="300.000000pt" height="197.000000pt" viewBox="0 0 300.000000 197.000000"
 preserveAspectRatio="xMidYMid meet">
<metadata>
Created by potrace 1.10, written by Peter Selinger 2001-2011
</metadata>
<g transform="translate(0.000000,197.000000) scale(0.100000,-0.100000)"
fill="#000000" stroke="none">
<path d="M895 1238 c-11 -7 -67 -50 -125 -97 -58 -47 -111 -90 -119 -95 -42
-33 -81 -76 -81 -90 0 -15 13 -29 72 -81 12 -10 16 -20 10 -24 -10 -6 -15 -38
-13 -73 1 -20 50 -48 84 -48 14 0 35 13 51 31 l27 30 35 -20 c19 -12 42 -21
50 -21 24 0 54 38 54 71 0 16 4 28 8 25 5 -3 9 12 9 32 0 20 6 82 12 137 26
213 26 200 0 219 -27 19 -46 20 -74 4z m69 -25 c2 -10 -7 -110 -22 -222 -32
-240 -35 -246 -106 -188 l-45 37 -26 -45 c-30 -51 -57 -58 -93 -24 l-23 20 27
50 c15 27 25 50 23 52 -2 2 -26 10 -54 18 -82 25 -74 39 115 188 90 72 172
131 182 131 9 0 19 -8 22 -17z"/>
<path d="M783 1077 c-78 -62 -142 -116 -143 -122 -1 -5 24 -17 54 -24 31 -8
56 -18 56 -23 0 -4 -13 -30 -30 -58 -35 -59 -34 -56 -15 -63 9 -4 24 11 45 48
17 30 33 55 36 55 2 0 25 -19 49 -41 25 -23 47 -40 49 -38 2 2 13 85 26 184
12 99 24 183 27 188 14 22 -27 -5 -154 -106z m111 -9 c-9 -112 -16 -153 -25
-156 -5 -2 -7 -7 -4 -12 3 -4 -2 -13 -10 -20 -12 -10 -16 -9 -21 4 -3 9 -11
16 -17 16 -5 0 -33 12 -62 26 -40 21 -51 31 -48 45 5 18 101 97 135 111 10 4
18 12 18 18 0 5 9 10 19 10 16 0 19 -6 15 -42z"/>
<path d="M1112 1129 c-64 -25 -87 -110 -50 -181 16 -32 66 -50 117 -44 58 8
84 8 144 0 34 -4 54 -2 70 9 20 13 26 13 42 1 22 -17 116 -19 132 -3 8 8 17 7
34 -1 28 -15 108 -19 113 -5 1 6 6 -4 10 -22 4 -17 13 -37 20 -42 15 -12 46
-5 46 10 0 16 33 45 68 59 25 10 39 10 58 1 32 -14 87 -14 101 0 7 7 19 8 30
4 32 -15 107 -13 126 3 15 13 19 13 38 -4 16 -15 24 -16 39 -6 14 8 27 9 45 2
55 -21 134 2 121 36 -3 7 -1 16 4 19 21 13 10 63 -17 85 -22 17 -36 20 -68 15
-22 -3 -53 -5 -70 -5 -16 1 -60 2 -97 3 -67 1 -68 2 -68 28 0 15 -6 29 -13 32
-23 9 -40 -9 -35 -36 6 -32 -10 -40 -52 -24 -25 9 -39 9 -73 -4 -35 -12 -46
-12 -67 -2 -30 15 -116 17 -125 3 -4 -7 -13 -6 -27 1 -11 6 -44 9 -74 7 -53
-4 -54 -4 -54 23 0 17 -7 32 -17 37 -22 11 -43 5 -43 -13 0 -14 -38 -43 -83
-62 -24 -11 -33 -10 -50 2 -48 34 -137 1 -137 -50 0 -20 -6 -25 -44 -30 -37
-6 -47 -4 -65 14 -26 26 -26 32 -2 60 15 17 28 21 62 19 38 -3 44 0 47 19 6
43 -73 68 -136 42z m114 -23 c14 -11 16 -18 8 -26 -9 -9 -18 -8 -37 4 -27 18
-62 11 -86 -18 -23 -27 -16 -78 14 -103 30 -27 52 -29 82 -8 19 13 22 13 27
-1 9 -25 -52 -46 -98 -33 -45 12 -71 50 -71 102 0 31 7 45 33 68 36 33 94 39
128 15z m334 -85 l0 -98 -37 -7 c-50 -8 -87 18 -91 63 -5 46 22 74 65 69 32
-4 33 -3 33 34 0 27 4 38 15 38 12 0 15 -18 15 -99z m305 6 c35 -50 2 -112
-59 -110 -36 1 -36 1 -30 -33 5 -30 4 -34 -15 -34 -20 0 -21 5 -21 99 l0 100
38 3 c52 4 70 -1 87 -25z m157 0 c4 -7 8 -22 8 -34 0 -21 -5 -23 -50 -23 -27
0 -50 -4 -50 -10 0 -15 49 -23 64 -11 11 9 16 9 22 0 8 -14 -22 -39 -47 -39
-9 0 -28 9 -43 21 -44 35 -31 103 24 121 18 6 62 -9 72 -25z m216 10 c18 -14
16 -117 -2 -117 -11 0 -16 15 -18 53 -3 48 -5 52 -28 52 -23 0 -25 -4 -28 -52
-2 -38 -7 -53 -18 -53 -11 0 -14 15 -14 66 0 60 2 66 19 61 10 -2 25 -1 31 3
14 9 37 3 58 -13z m164 -10 c4 -7 8 -22 8 -34 0 -21 -5 -23 -50 -23 -27 0 -50
-4 -50 -10 0 -15 49 -23 64 -11 11 9 16 9 22 0 8 -14 -22 -39 -47 -39 -9 0
-28 9 -43 21 -44 35 -31 103 24 121 18 6 62 -9 72 -25z m-1019 6 c33 -38 22
-94 -24 -113 -27 -11 -33 -11 -57 7 -33 25 -41 76 -16 104 22 24 76 25 97 2z
m321 1 c9 -8 16 -26 16 -40 0 -22 -4 -24 -50 -24 -27 0 -50 -4 -50 -9 0 -15
35 -23 65 -15 37 9 29 -17 -8 -30 -59 -21 -114 68 -71 115 21 23 76 25 98 3z
m386 -49 c0 -51 -3 -65 -15 -65 -12 0 -15 14 -15 65 0 51 3 65 15 65 12 0 15
-14 15 -65z"/>
<path d="M1472 1018 c-7 -7 -12 -21 -12 -33 0 -43 50 -62 70 -26 14 27 13 37
-6 55 -19 19 -36 20 -52 4z"/>
<path d="M1782 1018 c-7 -7 -12 -21 -12 -33 0 -43 50 -62 70 -26 14 27 13 37
-6 55 -19 19 -36 20 -52 4z"/>
<path d="M1943 1023 c-25 -10 -12 -23 22 -23 36 0 47 13 19 24 -18 7 -23 7
-41 -1z"/>
<path d="M2323 1024 c-25 -11 -12 -24 23 -24 24 0 34 4 32 13 -5 13 -35 19
-55 11z"/>
<path d="M1312 1018 c-7 -7 -12 -25 -12 -40 0 -21 6 -29 26 -34 31 -8 47 6 47
41 0 39 -36 58 -61 33z"/>
<path d="M1633 1024 c-25 -11 -12 -24 23 -24 24 0 34 4 32 13 -5 13 -35 19
-55 11z"/>
</g>
</svg>
