<svg id="Calque_1" data-name="Calque 1" xmlns="http://www.w3.org/2000/svg" viewBox="0 0 50 50"><defs><style>.cls-1{fill:#fff;fill-rule:evenodd;}</style></defs><title>Picto</title><path class="cls-1" d="M20.14,18.2V31.11l12.48-6.43ZM25.52,9c2.22,0,10.06.07,15.56.46a6.63,6.63,0,0,1,4.62,2C47.09,12.79,47.54,16,47.54,16A69.48,69.48,0,0,1,48,23.4v3.49a69.48,69.48,0,0,1-.46,7.44s-.45,3.16-1.84,4.56a6.63,6.63,0,0,1-4.62,2c-6.18.44-15.31.47-16.11.48H24.9c-.35,0-12-.12-15.69-.47-1-.19-3.34-.13-5.09-2-1.39-1.4-1.84-4.56-1.84-4.56a69.48,69.48,0,0,1-.46-7.44V23.14A69.79,69.79,0,0,1,2.28,16s.45-3.17,1.84-4.56a6.63,6.63,0,0,1,4.62-2C14.24,9.06,22.08,9,24.29,9Z"/></svg>