<svg id="Calque_1" data-name="Calque 1" xmlns="http://www.w3.org/2000/svg" xmlns:xlink="http://www.w3.org/1999/xlink" viewBox="0 0 50 50"><defs><style>.cls-1,.cls-2,.cls-3{fill:#fff;}.cls-1{clip-rule:evenodd;}.cls-3{fill-rule:evenodd;}.cls-4{clip-path:url(#clip-path);}.cls-5{isolation:isolate;}.cls-6{clip-path:url(#clip-path-2);}.cls-7{clip-path:url(#clip-path-3);}</style><clipPath id="clip-path"><path class="cls-1" d="M34.5,25.17H28.17V48H18.79V25.17H14.33V17.11h4.46V11.9c0-3.74,1.76-9.57,9.47-9.57l7,0v7.82H30.16a1.92,1.92,0,0,0-2,2.2v4.73h7.15Z"/></clipPath><clipPath id="clip-path-2"><rect class="cls-2" x="9.76" y="-2.24" width="30.13" height="54.77"/></clipPath><clipPath id="clip-path-3"><rect class="cls-2" x="14.33" y="2.33" width="21" height="45.65"/></clipPath></defs><title>Picto</title><path class="cls-3" d="M34.5,25.17H28.17V48H18.79V25.17H14.33V17.11h4.46V11.9c0-3.74,1.76-9.57,9.47-9.57l7,0v7.82H30.16a1.92,1.92,0,0,0-2,2.2v4.73h7.15Z"/><g class="cls-4"><g class="cls-5"><rect class="cls-2" x="9.76" y="-2.24" width="30.13" height="54.77"/><g class="cls-6"><rect class="cls-2" x="14.33" y="2.33" width="21" height="45.65"/><g class="cls-7"><rect class="cls-2" x="9.76" y="-2.24" width="30.13" height="54.77"/></g></g></g></g></svg>