<svg id="Calque_1" data-name="Calque 1" xmlns="http://www.w3.org/2000/svg" xmlns:xlink="http://www.w3.org/1999/xlink" viewBox="0 0 50 50"><defs><style>.cls-1,.cls-2,.cls-3{fill:#fff;}.cls-1{clip-rule:evenodd;}.cls-3{fill-rule:evenodd;}.cls-4{clip-path:url(#clip-path);}.cls-5{isolation:isolate;}.cls-6{clip-path:url(#clip-path-2);}.cls-7{clip-path:url(#clip-path-3);}</style><clipPath id="clip-path"><path class="cls-1" d="M45.75,7a18.54,18.54,0,0,1-5.88,2.3,9.14,9.14,0,0,0-6.76-3,9.38,9.38,0,0,0-9.26,9.5A9.6,9.6,0,0,0,24.09,18,26.06,26.06,0,0,1,5,8.07a9.69,9.69,0,0,0-1.26,4.79,9.56,9.56,0,0,0,4.12,7.9,9.09,9.09,0,0,1-4.19-1.19v.12A9.44,9.44,0,0,0,11.1,29a8.61,8.61,0,0,1-2.44.34,9.19,9.19,0,0,1-1.75-.17,9.3,9.3,0,0,0,8.66,6.59A18.3,18.3,0,0,1,4.06,39.83a18,18,0,0,1-2.21-.13A25.79,25.79,0,0,0,16.05,44c17,0,26.36-14.47,26.36-27q0-.61,0-1.23A19,19,0,0,0,47,10.79a18,18,0,0,1-5.32,1.5A9.44,9.44,0,0,0,45.75,7"/></clipPath><clipPath id="clip-path-2"><rect class="cls-2" x="-2.66" y="1.83" width="54.18" height="46.95"/></clipPath><clipPath id="clip-path-3"><rect class="cls-2" x="1.85" y="6.34" width="45.15" height="37.92"/></clipPath></defs><title>Picto</title><path class="cls-3" d="M45.75,7a18.54,18.54,0,0,1-5.88,2.3,9.14,9.14,0,0,0-6.76-3,9.38,9.38,0,0,0-9.26,9.5A9.6,9.6,0,0,0,24.09,18,26.06,26.06,0,0,1,5,8.07a9.69,9.69,0,0,0-1.26,4.79,9.56,9.56,0,0,0,4.12,7.9,9.09,9.09,0,0,1-4.19-1.19v.12A9.44,9.44,0,0,0,11.1,29a8.61,8.61,0,0,1-2.44.34,9.19,9.19,0,0,1-1.75-.17,9.3,9.3,0,0,0,8.66,6.59A18.3,18.3,0,0,1,4.06,39.83a18,18,0,0,1-2.21-.13A25.79,25.79,0,0,0,16.05,44c17,0,26.36-14.47,26.36-27q0-.61,0-1.23A19,19,0,0,0,47,10.79a18,18,0,0,1-5.32,1.5A9.44,9.44,0,0,0,45.75,7"/><g class="cls-4"><g class="cls-5"><rect class="cls-2" x="-2.66" y="1.83" width="54.18" height="46.95"/><g class="cls-6"><rect class="cls-2" x="1.85" y="6.34" width="45.15" height="37.92"/><g class="cls-7"><rect class="cls-2" x="-2.66" y="1.83" width="54.18" height="46.65"/></g></g></g></g></svg>