<?xml version="1.0" encoding="utf-8"?>
<!-- Generator: Adobe Illustrator 26.3.1, SVG Export Plug-In . SVG Version: 6.00 Build 0)  -->
<svg version="1.1" id="Calque_1" xmlns="http://www.w3.org/2000/svg" xmlns:xlink="http://www.w3.org/1999/xlink" x="0px" y="0px"
	 viewBox="0 0 150 150" style="enable-background:new 0 0 150 150;" xml:space="preserve">
<style type="text/css">
	.st0{fill:#FFFFFF;}
</style>
<path class="st0" d="M133.34,38.82c0-0.62-0.02-0.64-0.67-0.64c-1.56,0.01-3.11-0.17-4.65-0.4c-5.59-0.84-23.7-10.35-26.77-25.89
	c-0.06-0.3-0.74-4.16-0.74-5.8c0-0.73-0.01-0.74-0.73-0.75c-0.17,0-0.34,0-0.5,0c-7.09,0-14.18,0-21.27,0
	c-1.43,0-1.23-0.18-1.23,1.25c0,30.74,0,61.49,0,92.23c0,1.15-0.03,2.29-0.23,3.42c-1.07,5.95-4.12,10.6-9.27,13.78
	c-4.47,2.75-9.32,3.54-14.46,2.52c-1.62-0.32-3.14-0.93-4.67-1.54c-0.12-0.11-0.25-0.23-0.37-0.34c-0.51-0.43-1.08-0.78-1.63-1.17
	c-6.56-4.54-9.68-10.85-8.73-18.74c0.96-8,5.57-13.44,13.15-16.24c2.26-0.83,4.65-1.18,7.07-1.05c1.56,0.08,3.11,0.28,4.62,0.71
	c0.52,0.15,0.81-0.04,0.83-0.59c0.01-0.19,0.02-0.39,0.02-0.58c0-5.52-0.21-17.57-0.23-17.6c0.01-1.59,0.01-3.18,0.04-4.77
	c0.01-0.46-0.22-0.54-0.6-0.58c-2.86-0.34-5.72-0.4-8.59-0.19c-3.97,0.29-7.82,1.11-11.57,2.45c-5.97,2.15-11.21,5.47-15.74,9.9
	c-3.89,3.81-6.94,8.21-9.18,13.17c-2.14,4.75-3.37,9.73-3.71,14.92c-0.15,2.25-0.12,4.51,0.09,6.77c0.29,3.12,0.88,6.17,1.83,9.15
	c2.73,8.57,7.68,15.59,14.72,21.17c0.71,0.57,1.4,1.19,2.26,1.56c0,0,0,0,0,0c0.36,0.32,0.72,0.64,1.08,0.96
	c1.14,0.86,2.36,1.59,3.63,2.22c7.88,3.89,16.18,5.47,24.92,4.41c11.35-1.39,20.81-6.42,28.25-15.08
	c7.01-8.16,10.41-17.73,10.47-28.44c0.09-15.31,0.02-30.62,0.03-45.93c0-0.37-0.21-0.88,0.19-1.07c0.32-0.14,0.63,0.27,0.93,0.47
	c5.7,3.74,11.84,6.45,18.5,7.97c3.87,0.89,7.78,1.42,11.77,1.42c1.26,0,1.42-0.06,1.42-1.31C133.62,55.13,133.34,40.26,133.34,38.82
	z"/>
</svg>
