<svg id="Calque_1" data-name="Calque 1" xmlns="http://www.w3.org/2000/svg" viewBox="0 0 50 50"><defs><style>.cls-1{fill:#fff;}</style></defs><title>Picto</title><rect class="cls-1" x="2.43" y="16.71" width="9.9" height="30.94"/><path class="cls-1" d="M36.22,16.71a9.64,9.64,0,0,0-8.77,5V17.43H17.73c.12,2.83,0,30.22,0,30.22h9.72V30.77a7,7,0,0,1,.33-2.45,5.34,5.34,0,0,1,5-3.67c3.52,0,4.93,2.77,4.93,6.83V47.65h9.72V30.32C47.43,21,42.63,16.71,36.22,16.71Z"/><path class="cls-1" d="M7.86,2.65A5.08,5.08,0,0,0,2.43,7.81,5,5,0,0,0,7.73,13H8a5.06,5.06,0,0,0,5.19-5.15A5.07,5.07,0,0,0,7.86,2.65Z"/></svg>