<svg id="Calque_1" data-name="Calque 1" xmlns="http://www.w3.org/2000/svg" viewBox="0 0 50 50"><defs><style>.cls-1{fill:#fff;}</style></defs><title>Picto</title><path class="cls-1" d="M37.28,10.12A2.76,2.76,0,1,0,40,12.88,2.75,2.75,0,0,0,37.28,10.12Z"/><path class="cls-1" d="M47.86,15.67a16.75,16.75,0,0,0-1.07-5.58,11.72,11.72,0,0,0-6.72-6.73,16.87,16.87,0,0,0-5.59-1.07C32,2.18,31.25,2.15,25,2.15s-7,0-9.48.14A16.87,16.87,0,0,0,9.93,3.36,11.3,11.3,0,0,0,5.86,6a11.25,11.25,0,0,0-2.65,4.08,16.75,16.75,0,0,0-1.07,5.58C2,18.12,2,18.91,2,25.15s0,7,.14,9.49a16.81,16.81,0,0,0,1.07,5.58,11.3,11.3,0,0,0,2.65,4.07A11.33,11.33,0,0,0,9.93,47,17.16,17.16,0,0,0,15.52,48c2.45.12,3.23.14,9.48.14s7,0,9.48-.14A17.16,17.16,0,0,0,40.07,47a11.8,11.8,0,0,0,6.72-6.73,16.81,16.81,0,0,0,1.07-5.58c.11-2.46.14-3.24.14-9.49S48,18.12,47.86,15.67ZM43.72,34.45a12.82,12.82,0,0,1-.79,4.27,7.19,7.19,0,0,1-1.72,2.64,7,7,0,0,1-2.65,1.72,12.5,12.5,0,0,1-4.27.79C31.87,44,31.14,44,25,44s-6.87,0-9.29-.14a12.5,12.5,0,0,1-4.27-.79,7,7,0,0,1-2.65-1.72,7.19,7.19,0,0,1-1.72-2.64,12.82,12.82,0,0,1-.79-4.27c-.11-2.43-.14-3.16-.14-9.3s0-6.87.14-9.29a12.82,12.82,0,0,1,.79-4.27,7.59,7.59,0,0,1,4.37-4.37,12.76,12.76,0,0,1,4.27-.79c2.42-.11,3.15-.13,9.29-.13s6.87,0,9.29.13a12.76,12.76,0,0,1,4.27.79,7.59,7.59,0,0,1,4.37,4.37,12.82,12.82,0,0,1,.79,4.27c.11,2.42.14,3.15.14,9.29S43.83,32,43.72,34.45Z"/><path class="cls-1" d="M25,13.34A11.81,11.81,0,1,0,36.81,25.15,11.81,11.81,0,0,0,25,13.34Zm0,19.48a7.67,7.67,0,1,1,7.67-7.67A7.67,7.67,0,0,1,25,32.82Z"/></svg>